# xmcd CD Database Entry
#
# Track frame offsets:
# 150
# 35038
# 63813
# 80056
# 110185
# 132499
# 153318
# 170653
# 191539
# 213030
# 241151
# 275503
# 300068
#
# Disc length: 4392 seconds
#
# Revision: 2
# Processed by: cddbd v1.4b41PL1 Copyright (c) Steve Scherf et al.
# Submitted via: tcd 2.0b
#
DISCID=af11260d
DTITLE=Box of Groove - Assorted Artists
DYEAR=1900
DGENRE=
TTITLE0=P-Funk - Make My Funk the P-Funk
TTITLE1=Radiohead - Paranoid Android
TTITLE2=Love Spit Love - Am I Wrong?
TTITLE3=Dave Matthews Band - Crush (Live)
TTITLE4=Mazzy Star - Fade Into You
TTITLE5=Red Hot Chili Peppers - Love Rollercoaster
TTITLE6=Phish - Free
TTITLE7=Ben Folds Five - Philosophy
TTITLE8=Cake - Sheep Go To Heaven
TTITLE9=Depeche Mode - Enjoy the Silence
TTITLE10=Dan Bern - Estelle
TTITLE11=Pink Floyd - Wish You Were Here
TTITLE12=Jane's Addiction - Jane Says(Live)
EXTD=
EXTT0=
EXTT1=
EXTT2=
EXTT3=
EXTT4=
EXTT5=
EXTT6=
EXTT7=
EXTT8=
EXTT9=
EXTT10=
EXTT11=
EXTT12=
PLAYORDER=
